<svg width="576" height="406" viewBox="0 0 576 406" fill="none" xmlns="http://www.w3.org/2000/svg">
<g clip-path="url(#clip0_264_480)">
<path d="M330.75 34.2449L295.144 54.9482L259.538 75.6515L223.932 96.3548L188.326 117.058L152.72 137.761L117.114 158.465" stroke="#EFEAFF" stroke-width="1.8" stroke-linecap="round" stroke-linejoin="round"/>
<path d="M78.3424 242.882L42.7364 263.585L6.89941 242.882L42.5055 222.179L78.3424 242.882Z" stroke="#EFEAFF" stroke-width="1.8" stroke-linecap="round" stroke-linejoin="round"/>
<path d="M126.787 339.982L91.1807 360.685L55.3438 339.982L90.9498 319.279L126.787 339.982Z" stroke="#EFEAFF" stroke-width="1.8" stroke-linecap="round" stroke-linejoin="round"/>
<path d="M390.266 303.401L354.66 324.105L318.823 303.401L354.429 282.698L390.266 303.401Z" stroke="#EFEAFF" stroke-width="1.8" stroke-linecap="round" stroke-linejoin="round"/>
<path d="M569.097 201.693L533.491 222.396L497.654 201.693L533.26 180.989L569.097 201.693Z" stroke="#EFEAFF" stroke-width="1.8" stroke-linecap="round" stroke-linejoin="round"/>
<path d="M81.7388 220.588L117.345 199.871L152.951 179.168L188.557 158.465L224.163 137.761L259.769 117.058L295.375 96.3547L330.981 75.6515L366.587 54.9482" stroke="#EFEAFF" stroke-width="1.8" stroke-linecap="round" stroke-linejoin="round"/>
<path d="M117.576 241.291L153.182 220.574L188.788 199.871L224.394 179.168L260 158.465L295.606 137.761L331.212 117.058L366.818 96.3547L402.424 75.6514" stroke="#EFEAFF" stroke-width="1.8" stroke-linecap="round" stroke-linejoin="round"/>
<path d="M153.427 261.995L189.033 241.291L224.639 220.588L260.245 199.885L295.851 179.168L331.457 158.465L367.063 137.761L402.669 117.058L438.261 96.3547" stroke="#EFEAFF" stroke-width="1.8" stroke-linecap="round" stroke-linejoin="round"/>
<path d="M189.264 282.698L224.87 261.995L260.476 241.291L296.082 220.588L331.688 199.871L367.294 179.168L402.9 158.465L438.506 137.761L474.098 117.058" stroke="#EFEAFF" stroke-width="1.8" stroke-linecap="round" stroke-linejoin="round"/>
<path d="M225.101 303.401L260.707 282.698L296.313 261.995L331.919 241.291L367.525 220.574L403.131 199.871L438.737 179.168L474.329 158.465L509.935 137.761" stroke="#EFEAFF" stroke-width="1.8" stroke-linecap="round" stroke-linejoin="round"/>
<path d="M260.938 324.104L296.544 303.401L332.15 282.698L367.756 261.995L403.362 241.278L438.968 220.574L474.574 199.871L510.166 179.168" stroke="#EFEAFF" stroke-width="1.8" stroke-linecap="round" stroke-linejoin="round"/>
<path d="M510.41 220.574H510.397L474.804 241.278H474.791M261.168 365.511L332.366 324.104H332.38M403.592 282.698L439.198 261.995L474.791 241.278M474.791 241.278L439.185 261.981" stroke="#EFEAFF" stroke-width="1.8" stroke-linecap="round" stroke-linejoin="round"/>
<path d="M509.934 137.761L474.097 117.058L438.26 96.3548L402.423 75.6515L366.587 54.9482L330.75 34.2449" stroke="#EFEAFF" stroke-width="1.8" stroke-linecap="round" stroke-linejoin="round"/>
<path d="M330.75 34.2449L366.587 54.9482L402.423 75.6515L438.26 96.3548L474.097 117.058L509.934 137.761" stroke="#EFEAFF" stroke-width="1.8" stroke-linecap="round" stroke-linejoin="round"/>
<path d="M474.328 158.465L438.505 137.761L402.668 117.058L366.818 96.3547L330.981 75.6515L295.144 54.9482" stroke="#EFEAFF" stroke-width="1.8" stroke-linecap="round" stroke-linejoin="round"/>
<path d="M295.144 54.9482L330.981 75.6515L366.818 96.3547L402.668 117.058L438.505 137.761L474.328 158.465L510.165 179.168" stroke="#EFEAFF" stroke-width="1.8" stroke-linecap="round" stroke-linejoin="round"/>
<path d="M259.538 75.6514L295.375 96.3547L331.212 117.058L367.062 137.761L402.899 158.465L438.736 179.168L474.573 199.871" stroke="#EFEAFF" stroke-width="1.8" stroke-linecap="round" stroke-linejoin="round"/>
<path d="M510.396 220.574L474.573 199.871L438.736 179.168L402.899 158.465L367.062 137.761L331.212 117.058L295.375 96.3547L259.538 75.6514" stroke="#EFEAFF" stroke-width="1.8" stroke-linecap="round" stroke-linejoin="round"/>
<path d="M474.791 241.278L438.967 220.574L403.13 199.871L367.293 179.168L331.456 158.465L295.606 137.761L259.769 117.058L223.932 96.3547L259.769 117.058L295.606 137.761L331.456 158.465L367.293 179.168L403.13 199.871L438.967 220.574" stroke="#EFEAFF" stroke-width="1.8" stroke-linecap="round" stroke-linejoin="round"/>
<path d="M439.185 261.981L403.361 241.278L367.524 220.575L331.687 199.871L295.85 179.168L260 158.465L224.163 137.761L188.326 117.058L224.163 137.761L260 158.465L295.85 179.168L331.687 199.871L367.524 220.575L403.361 241.278" stroke="#EFEAFF" stroke-width="1.8" stroke-linecap="round" stroke-linejoin="round"/>
<path d="M152.72 137.761L188.557 158.465L224.394 179.168L260.244 199.885L296.081 220.588L331.918 241.291L367.755 261.995" stroke="#EFEAFF" stroke-width="1.8" stroke-linecap="round" stroke-linejoin="round"/>
<path d="M403.579 282.698L367.755 261.995L331.918 241.291L296.081 220.588L260.244 199.885L224.394 179.168L188.557 158.465L152.72 137.761" stroke="#EFEAFF" stroke-width="1.8" stroke-linecap="round" stroke-linejoin="round"/>
<path d="M117.114 158.465L152.951 179.168L188.788 199.871L224.638 220.588L260.475 241.291L296.312 261.995" stroke="#EFEAFF" stroke-width="1.8" stroke-linecap="round" stroke-linejoin="round"/>
<path d="M332.149 282.698L296.312 261.995L260.475 241.291L224.638 220.588L188.788 199.871L152.951 179.168L117.114 158.465" stroke="#EFEAFF" stroke-width="1.8" stroke-linecap="round" stroke-linejoin="round"/>
<path d="M117.345 199.871L153.182 220.574L189.032 241.291L224.869 261.995L260.706 282.698L296.543 303.401" stroke="#EFEAFF" stroke-width="1.8" stroke-linecap="round" stroke-linejoin="round"/>
<path d="M332.367 324.104L296.543 303.401L260.706 282.698L224.869 261.995L189.032 241.291L153.182 220.574L117.345 199.871" stroke="#EFEAFF" stroke-width="1.8" stroke-linecap="round" stroke-linejoin="round"/>
<path d="M296.761 344.808L260.937 324.104L225.1 303.401L189.263 282.698L153.426 261.995L117.576 241.291L81.7388 220.588" stroke="#EFEAFF" stroke-width="1.8" stroke-linecap="round" stroke-linejoin="round"/>
<path d="M510.411 220.574H510.397" stroke="#EFEAFF" stroke-width="1.8" stroke-linecap="round" stroke-linejoin="round"/>
<path d="M474.805 241.278H474.791" stroke="#EFEAFF" stroke-width="1.8" stroke-linecap="round" stroke-linejoin="round"/>
<path d="M439.199 261.995L439.185 261.981" stroke="#EFEAFF" stroke-width="1.8" stroke-linecap="round" stroke-linejoin="round"/>
<path d="M403.593 282.698H403.579" stroke="#EFEAFF" stroke-width="1.8" stroke-linecap="round" stroke-linejoin="round"/>
<path d="M332.38 324.104H332.367" stroke="#EFEAFF" stroke-width="1.8" stroke-linecap="round" stroke-linejoin="round"/>
<path d="M46.3633 282.698L81.9829 261.995L117.575 241.291" stroke="#EFEAFF" stroke-width="1.8" stroke-linecap="round" stroke-linejoin="round"/>
<path d="M82.2148 303.401L117.821 282.698L153.427 261.995" stroke="#EFEAFF" stroke-width="1.8" stroke-linecap="round" stroke-linejoin="round"/>
<path d="M118.052 324.105L153.658 303.401L189.264 282.698" stroke="#EFEAFF" stroke-width="1.8" stroke-linecap="round" stroke-linejoin="round"/>
<path d="M153.889 344.808L189.495 324.104L225.101 303.401" stroke="#EFEAFF" stroke-width="1.8" stroke-linecap="round" stroke-linejoin="round"/>
<path d="M153.889 344.808L189.726 365.525L225.332 344.808L260.938 324.104" stroke="#EFEAFF" stroke-width="1.8" stroke-linecap="round" stroke-linejoin="round"/>
<path d="M81.9829 261.995L117.82 282.698L153.657 303.401L189.494 324.105L225.331 344.808" stroke="#EFEAFF" stroke-width="1.8" stroke-linecap="round" stroke-linejoin="round"/>
<path d="M81.9829 261.995L117.82 282.698L153.657 303.401L189.494 324.105L225.331 344.808L261.168 365.511" stroke="#EFEAFF" stroke-width="1.8" stroke-linecap="round" stroke-linejoin="round"/>
<path d="M153.888 344.808L118.051 324.105L82.2138 303.401L46.3633 282.698" stroke="#EFEAFF" stroke-width="1.8" stroke-linecap="round" stroke-linejoin="round"/>
<path d="M46.3633 282.698L82.2139 303.401L118.051 324.105L153.888 344.808L189.725 365.525L225.331 344.808" stroke="#EFEAFF" stroke-width="1.8" stroke-linecap="round" stroke-linejoin="round"/>
<path d="M371.371 221.607L281.792 273.359L192.227 221.607C193.408 219.582 195.093 217.856 197.199 216.632L275.013 171.678C279.211 169.258 284.387 169.258 288.598 171.678L366.399 216.632C368.504 217.856 370.202 219.582 371.371 221.607Z" fill="#150903" stroke="#150903" stroke-width="1.8" stroke-linecap="round" stroke-linejoin="round"/>
<path d="M372.581 33.2391L294.78 78.1936C290.582 80.6269 287.987 85.1129 287.987 89.9658V179.861C287.987 184.714 290.582 189.2 294.78 191.633L372.581 236.588C376.778 239.021 381.968 239.021 386.165 236.588L463.966 191.633C468.164 189.2 470.759 184.714 470.759 179.861V89.9658C470.759 85.1129 468.164 80.6269 463.966 78.1936L386.165 33.2391C381.968 30.8058 376.778 30.8058 372.581 33.2391Z" fill="url(#paint0_linear_264_480)" stroke="#150903" stroke-width="1.8" stroke-miterlimit="10"/>
<mask id="mask0_264_480" style="mask-type:luminance" maskUnits="userSpaceOnUse" x="393" y="102" width="69" height="118">
<path d="M393.594 219.474L393.376 141.908L460.839 102.935L461.056 180.5L393.594 219.474Z" fill="white"/>
</mask>
<g mask="url(#mask0_264_480)">
<path d="M459.481 103.709L394.722 141.119C393.975 141.554 393.377 142.601 393.377 143.458L393.431 163.617C393.431 164.474 394.043 164.827 394.79 164.392L405.576 158.152C406.323 157.717 406.935 158.057 406.935 158.914L407.016 186.835C407.016 187.692 406.418 188.738 405.671 189.173L394.885 195.413C394.138 195.848 393.54 196.881 393.54 197.737L393.594 217.897C393.594 218.753 394.206 219.107 394.953 218.672L459.712 181.262C460.459 180.827 461.057 179.78 461.057 178.924L461.003 158.764C461.003 157.908 460.391 157.568 459.644 158.003L448.858 164.242C448.111 164.677 447.499 164.324 447.499 163.468L447.418 135.546C447.418 134.69 448.015 133.643 448.763 133.221L459.549 126.982C460.296 126.547 460.894 125.5 460.894 124.644L460.84 104.484C460.84 103.628 460.228 103.274 459.481 103.709Z" fill="white"/>
</g>
<path d="M379.374 144.912V144.925V230.457" stroke="#150903" stroke-width="1.8" stroke-linecap="round" stroke-linejoin="round"/>
<path d="M388.027 129.918H388.041V129.904L462.065 87.1384" stroke="#150903" stroke-width="1.8" stroke-linecap="round" stroke-linejoin="round"/>
<path d="M370.692 129.904L296.654 87.1384" stroke="#150903" stroke-width="1.8" stroke-linecap="round" stroke-linejoin="round"/>
<path d="M379.36 142.764V238.41C377.01 238.41 374.659 237.811 372.567 236.588L294.767 191.634C290.555 189.214 287.974 184.714 287.974 179.861V89.9659C287.974 87.5326 288.613 85.1944 289.795 83.169L372.567 130.992C376.765 133.425 379.36 137.911 379.36 142.764Z" fill="#150903" stroke="#150903" stroke-width="1.8" stroke-linecap="round" stroke-linejoin="round"/>
<path d="M279.361 31.3222L201.56 76.2768C197.362 78.7101 194.768 83.196 194.768 88.049V177.944C194.768 182.797 197.362 187.283 201.56 189.717L279.361 234.671C283.559 237.104 288.748 237.104 292.946 234.671L370.746 189.717C374.944 187.283 377.539 182.797 377.539 177.944V88.049C377.539 83.196 374.944 78.7101 370.746 76.2768L292.946 31.3222C288.748 28.889 283.559 28.889 279.361 31.3222Z" fill="url(#paint1_linear_264_480)" stroke="#150903" stroke-width="1.8" stroke-miterlimit="10"/>
<mask id="mask1_264_480" style="mask-type:luminance" maskUnits="userSpaceOnUse" x="300" y="101" width="68" height="117">
<path d="M300.379 217.557L300.162 139.991L367.625 101.017L367.842 178.583L300.379 217.557Z" fill="white"/>
</mask>
<g mask="url(#mask1_264_480)">
<path d="M331.977 160.449C331.229 160.884 330.618 160.531 330.618 159.674L330.564 139.515C330.564 138.659 331.161 137.612 331.909 137.19L335.957 134.852C336.704 134.417 337.302 134.757 337.302 135.627L337.356 155.787C337.356 156.643 336.758 157.69 336.011 158.125L331.963 160.463M366.278 101.792L301.519 139.202C300.772 139.637 300.174 140.684 300.174 141.54L300.392 215.993C300.392 216.85 301.003 217.203 301.75 216.768L329.409 200.782C330.156 200.347 330.754 199.314 330.754 198.444L330.7 178.284C330.7 177.428 331.297 176.381 332.044 175.946L366.455 156.072C367.202 155.637 367.8 154.604 367.8 153.748L367.651 102.554C367.651 101.697 367.053 101.344 366.306 101.779" fill="white"/>
</g>
<path d="M286.167 142.995V228.527" stroke="#150903" stroke-width="1.8" stroke-linecap="round" stroke-linejoin="round"/>
<path d="M294.821 127.987H294.834V127.974L356.999 92.0591" stroke="#150903" stroke-width="1.8" stroke-linecap="round" stroke-linejoin="round"/>
<path d="M277.485 127.987L203.448 85.2079" stroke="#150903" stroke-width="1.8" stroke-linecap="round" stroke-linejoin="round"/>
<path d="M286.153 140.847V236.493C283.803 236.493 281.453 235.895 279.361 234.671L201.56 189.717C197.349 187.297 194.768 182.797 194.768 177.944V88.049C194.768 85.6157 195.406 83.2775 196.588 81.2521L279.361 129.075C283.559 131.508 286.153 135.994 286.153 140.847Z" fill="#150903" stroke="#150903" stroke-width="1.8" stroke-linecap="round" stroke-linejoin="round"/>
<path d="M351.239 76.9156L292.171 42.7817" stroke="white" stroke-width="1.8" stroke-linecap="round" stroke-linejoin="round"/>
<path d="M367.228 93.1058C367.228 88.7965 364.933 84.8272 361.224 82.6793L359.675 81.7822" stroke="white" stroke-width="1.8" stroke-linecap="round" stroke-linejoin="round"/>
<path d="M185.842 141.2L108.041 186.155C103.844 188.588 101.249 193.074 101.249 197.927V287.823C101.249 292.676 103.844 297.162 108.041 299.595L185.842 344.549C190.04 346.983 195.229 346.983 199.427 344.549L277.228 299.595C281.426 297.162 284.02 292.676 284.02 287.823V197.927C284.02 193.074 281.426 188.588 277.228 186.155L199.427 141.2C195.229 138.767 190.04 138.767 185.842 141.2Z" fill="url(#paint2_linear_264_480)" stroke="#150903" stroke-width="1.8" stroke-miterlimit="10"/>
<mask id="mask2_264_480" style="mask-type:luminance" maskUnits="userSpaceOnUse" x="206" y="210" width="69" height="118">
<path d="M206.858 327.435L206.641 249.869L274.103 210.896L274.321 288.462L206.858 327.435Z" fill="white"/>
</mask>
<g mask="url(#mask2_264_480)">
<path d="M238.457 270.328C237.71 270.763 237.098 270.409 237.098 269.566L237.044 249.393C237.044 248.537 237.642 247.49 238.389 247.069L242.437 244.731C243.185 244.296 243.796 244.636 243.796 245.492L243.85 265.665C243.85 266.508 243.252 267.568 242.505 267.99L238.457 270.328ZM272.745 211.671L207.986 249.081C207.239 249.516 206.641 250.562 206.641 251.419L206.858 325.872C206.858 326.728 207.47 327.082 208.217 326.647L235.862 310.674C236.609 310.239 237.207 309.192 237.207 308.336L237.153 288.176C237.153 287.32 237.751 286.273 238.498 285.852L242.546 283.514C243.293 283.079 243.905 283.419 243.905 284.275L243.959 304.434C243.959 305.291 244.557 305.644 245.304 305.209L272.963 289.223C273.71 288.788 274.308 287.741 274.308 286.885L274.09 212.432C274.09 211.576 273.479 211.222 272.732 211.657" fill="white"/>
</g>
<path d="M192.634 252.873V338.419" stroke="#150903" stroke-width="1.8" stroke-linecap="round" stroke-linejoin="round"/>
<path d="M201.288 237.866H201.301L275.325 195.086" stroke="#150903" stroke-width="1.8" stroke-linecap="round" stroke-linejoin="round"/>
<path d="M183.953 237.866L109.929 195.086" stroke="#150903" stroke-width="1.8" stroke-linecap="round" stroke-linejoin="round"/>
<path d="M192.635 250.725V346.371C190.285 346.371 187.934 345.773 185.842 344.549L108.041 299.595C103.83 297.175 101.249 292.676 101.249 287.823V197.927C101.249 195.494 101.888 193.156 103.069 191.13L185.842 238.953C190.04 241.386 192.635 245.872 192.635 250.725Z" fill="#150903" stroke="#150903" stroke-width="1.8" stroke-linecap="round" stroke-linejoin="round"/>
<path d="M262.121 103.07L266.305 114.394L277.621 118.581L266.305 122.781L262.121 134.105L257.923 122.781L246.607 118.581L257.923 114.394L262.121 103.07Z" fill="white"/>
<path d="M281.357 90.9989L283.314 96.2868L288.612 98.2579L283.314 100.215L281.357 105.517L279.401 100.215L274.103 98.2579L279.401 96.2868L281.357 90.9989Z" fill="white"/>
</g>
<defs>
<linearGradient id="paint0_linear_264_480" x1="287.974" y1="134.92" x2="470.759" y2="134.92" gradientUnits="userSpaceOnUse">
<stop stop-color="#E873FF"/>
<stop offset="1" stop-color="#5B2AE1"/>
</linearGradient>
<linearGradient id="paint1_linear_264_480" x1="286.153" y1="29.4973" x2="286.153" y2="236.496" gradientUnits="userSpaceOnUse">
<stop stop-color="#FFDE83"/>
<stop offset="1" stop-color="#FF6C37"/>
</linearGradient>
<linearGradient id="paint2_linear_264_480" x1="101.235" y1="242.882" x2="284.02" y2="242.882" gradientUnits="userSpaceOnUse">
<stop stop-color="#E873FF"/>
<stop offset="1" stop-color="#5B2AE1"/>
</linearGradient>
<clipPath id="clip0_264_480">
<rect width="576" height="405" fill="white" transform="translate(0 0.436157)"/>
</clipPath>
</defs>
</svg>